<?xml version="1.0" encoding="UTF-8"?>
<svg width="141px" height="40px" viewBox="0 0 141 40" version="1.1" xmlns="http://www.w3.org/2000/svg" xmlns:xlink="http://www.w3.org/1999/xlink">
    <!-- Generator: Sketch 46.2 (44496) - http://www.bohemiancoding.com/sketch -->
    <title>Logo</title>
    <desc>Created with Sketch.</desc>
    <defs></defs>
    <g id="Landing" stroke="none" stroke-width="1" fill="none" fill-rule="evenodd">
        <g id="Menu" transform="translate(-139.000000, -16.000000)" fill="#ffffff">
            <g id="Header">
                <g id="Logo-Horizontal" transform="translate(125.000000, 0.000000)">
                    <g id="Logo" transform="translate(14.000000, 16.000000)">
                        <path d="M11.1251132,10.2739881 C8.77479627,7.92367122 8.77479627,4.1130546 11.1251132,1.76273769 C13.4754301,-0.587579228 17.2860467,-0.587579228 19.6363636,1.76273769 C21.9866805,-0.587579228 25.7972972,-0.587579228 28.1476141,1.76273769 C30.497931,4.1130546 30.497931,7.92367122 28.1476141,10.2739881 L19.6363636,18.7852386 L11.1251132,10.2739881 Z M12.8273633,8.57173805 L17.9341135,3.46498778 C16.5239234,2.05479763 14.2375534,2.05479763 12.8273633,3.46498778 C11.4171731,4.87517792 11.4171731,7.1615479 12.8273633,8.57173805 Z M21.3386137,3.46498778 L26.445364,8.57173805 C27.8555541,7.1615479 27.8555541,4.87517792 26.445364,3.46498778 C25.0351739,2.05479763 22.7488039,2.05479763 21.3386137,3.46498778 Z M24.7431139,10.2739881 L19.6363636,5.16723787 L14.5296134,10.2739881 L19.6363636,15.3807384 L24.7431139,10.2739881 Z M10.2739881,11.1251132 L18.7852386,19.6363636 L10.2739881,28.1476141 C7.92367122,30.497931 4.1130546,30.497931 1.76273769,28.1476141 C-0.587579228,25.7972972 -0.587579228,21.9866805 1.76273769,19.6363636 C-0.587579228,17.2860467 -0.587579228,13.4754301 1.76273769,11.1251132 C4.1130546,8.77479627 7.92367122,8.77479627 10.2739881,11.1251132 Z M8.57173805,12.8273633 C7.1615479,11.4171731 4.87517792,11.4171731 3.46498778,12.8273633 C2.05479763,14.2375534 2.05479763,16.5239234 3.46498778,17.9341135 L8.57173805,12.8273633 Z M3.46498778,21.3386137 C2.05479763,22.7488039 2.05479763,25.0351739 3.46498778,26.445364 C4.87517792,27.8555541 7.1615479,27.8555541 8.57173805,26.445364 L3.46498778,21.3386137 Z M10.2739881,24.7431139 L15.3807384,19.6363636 L10.2739881,14.5296134 L5.16723787,19.6363636 L10.2739881,24.7431139 Z M28.1476141,28.9987391 C30.497931,31.349056 30.497931,35.1596727 28.1476141,37.5099896 C25.7972972,39.8603065 21.9866805,39.8603065 19.6363636,37.5099896 C17.2860467,39.8603065 13.4754301,39.8603065 11.1251132,37.5099896 C8.77479627,35.1596727 8.77479627,31.349056 11.1251132,28.9987391 L19.6363636,20.4874887 L28.1476141,28.9987391 Z M26.445364,30.7009892 L21.3386137,35.8077395 C22.7488039,37.2179296 25.0351739,37.2179296 26.445364,35.8077395 C27.8555541,34.3975493 27.8555541,32.1111794 26.445364,30.7009892 Z M17.9341135,35.8077395 L12.8273633,30.7009892 C11.4171731,32.1111794 11.4171731,34.3975493 12.8273633,35.8077395 C14.2375534,37.2179296 16.5239234,37.2179296 17.9341135,35.8077395 Z M14.5296134,28.9987391 L19.6363636,34.1054894 L24.7431139,28.9987391 L19.6363636,23.8919889 L14.5296134,28.9987391 Z M28.9987391,28.1476141 L20.4874887,19.6363636 L28.9987391,11.1251132 C31.349056,8.77479627 35.1596727,8.77479627 37.5099896,11.1251132 C39.8603065,13.4754301 39.8603065,17.2860467 37.5099896,19.6363636 C39.8603065,21.9866805 39.8603065,25.7972972 37.5099896,28.1476141 C35.1596727,30.497931 31.349056,30.497931 28.9987391,28.1476141 Z M30.7009892,26.445364 C32.1111794,27.8555541 34.3975493,27.8555541 35.8077395,26.445364 C37.2179296,25.0351739 37.2179296,22.7488039 35.8077395,21.3386137 L30.7009892,26.445364 Z M35.8077395,17.9341135 C37.2179296,16.5239234 37.2179296,14.2375534 35.8077395,12.8273633 C34.3975493,11.4171731 32.1111794,11.4171731 30.7009892,12.8273633 L35.8077395,17.9341135 Z M28.9987391,14.5296134 L23.8919889,19.6363636 L28.9987391,24.7431139 L34.1054894,19.6363636 L28.9987391,14.5296134 Z" id="Combined-Shape"></path>
                        <path d="M53.8964012,23.6864256 L53.8283211,23.6864256 L53.8283211,32.2257378 L48.9265484,32.2257378 L48.9265484,6.74334577 L53.8283211,6.74334577 L53.8283211,22.4326377 L53.8964012,22.4326377 L59.1726149,14.8082518 L64.8573097,14.8082518 L59.0024145,22.6698408 L65.0955903,32.2257378 L59.0704947,32.2257378 L53.8964012,23.6864256 Z M78.3712247,29.9553651 L78.3031446,29.9553651 C77.5769524,31.0171368 76.7826916,31.7400343 75.9203384,32.1240793 C75.0579852,32.5081244 74.1275654,32.700144 73.1290511,32.700144 C72.0624564,32.700144 71.1490565,32.5420102 70.388824,32.2257378 C69.6285916,31.9094654 68.993183,31.4745974 68.4825791,30.9211207 C67.9719752,30.367644 67.597538,29.7238134 67.3592562,28.9896096 C67.1209744,28.2554058 67.0018353,27.4703843 67.0018353,26.6345215 L67.0018353,14.8082518 L71.903608,14.8082518 L71.903608,25.4146197 C71.903608,26.0471645 71.9887073,26.5780424 72.1589086,27.0072692 C72.3291099,27.4364961 72.5617149,27.7810019 72.8567304,28.0407971 C73.151746,28.3005923 73.4807969,28.4869643 73.843893,28.5999187 C74.2069891,28.7128732 74.5814263,28.7693495 74.9672159,28.7693495 C75.9884237,28.7693495 76.7770112,28.3966055 77.333002,27.6511063 C77.8889929,26.905607 78.1669842,25.9229182 78.1669842,24.7030104 L78.1669842,14.8082518 L83.0687569,14.8082518 L83.0687569,32.2257378 L78.3712247,32.2257378 L78.3712247,29.9553651 Z M86.8472067,6.74334577 L91.7489795,6.74334577 L91.7489795,32.2257378 L86.8472067,32.2257378 L86.8472067,6.74334577 Z M95.050868,9.42035238 C95.050868,9.0588982 95.1246208,8.70874472 95.2721286,8.36988143 C95.4196364,8.03101814 95.6182016,7.72604575 95.8678301,7.45495512 C96.1174587,7.18386449 96.4181431,6.96360665 96.7698925,6.79417501 C97.1216418,6.62474336 97.5017523,6.54002881 97.9102354,6.54002881 C98.2733315,6.54002881 98.6250756,6.61344809 98.9654782,6.76028885 C99.3058808,6.90712961 99.6122385,7.11044453 99.8845606,7.37023972 C100.156883,7.63003491 100.372468,7.92935966 100.531322,8.26822295 C100.690177,8.60708624 100.769603,8.968535 100.769603,9.35258006 C100.769603,9.73662512 100.69585,10.0980739 100.548342,10.4369372 C100.400834,10.7758005 100.196596,11.0807728 99.9356207,11.3518635 C99.6746454,11.6229541 99.3682877,11.8375643 99.0165383,11.9957005 C98.664789,12.1538367 98.296025,12.2329036 97.9102354,12.2329036 C97.5017523,12.2329036 97.1216418,12.1481891 96.7698925,11.9787574 C96.4181431,11.8093258 96.1174587,11.5947156 95.8678301,11.3349204 C95.6182016,11.0751252 95.4196364,10.7758005 95.2721286,10.4369372 C95.1246208,10.0980739 95.050868,9.75921567 95.050868,9.42035238 Z M95.4593491,14.8082518 L100.361122,14.8082518 L100.361122,32.2257378 L95.4593491,32.2257378 L95.4593491,14.8082518 Z M115.304721,21.6193698 C115.304721,20.986825 115.219621,20.4559472 115.04942,20.0267203 C114.879219,19.5974935 114.646614,19.2529877 114.351598,18.9931925 C114.056583,18.7333973 113.727532,18.5470253 113.364436,18.4340708 C113.001339,18.3211164 112.626902,18.26464 112.241113,18.26464 C111.219905,18.26464 110.431317,18.6373841 109.875326,19.3828833 C109.319336,20.1283826 109.041344,21.1110714 109.041344,22.3309792 L109.041344,32.2257378 L104.139572,32.2257378 L104.139572,14.8082518 L108.837104,14.8082518 L108.837104,17.0786245 L108.905184,17.0786245 C109.631376,16.0168528 110.425637,15.2939553 111.28799,14.9099102 C112.150343,14.5258652 113.080763,14.3338455 114.079277,14.3338455 C115.123179,14.3338455 116.030905,14.4919794 116.802484,14.8082518 C117.574064,15.1245242 118.215146,15.5593922 118.725749,16.1128689 C119.236353,16.6663456 119.610791,17.3101762 119.849072,18.04438 C120.087354,18.7785838 120.206493,19.5636053 120.206493,20.3994681 L120.206493,32.2257378 L115.304721,32.2257378 L115.304721,21.6193698 Z M135.524533,29.9553651 L135.456453,29.9553651 C134.639487,31.0171368 133.692047,31.7400343 132.614105,32.1240793 C131.536164,32.5081244 130.486605,32.700144 129.465397,32.700144 C128.784592,32.700144 128.081104,32.6097819 127.354912,32.4290548 C126.62872,32.2483277 125.964945,31.9490029 125.363567,31.5310715 C124.762189,31.1131402 124.274286,30.5653194 123.899843,29.8875928 C123.5254,29.2098662 123.338181,28.374016 123.338181,27.380017 C123.338181,26.9056084 123.406261,26.3803782 123.542422,25.8043106 C123.678583,25.228243 123.996287,24.6804222 124.495544,24.1608318 C124.994802,23.6412414 125.743676,23.1837829 126.74219,22.7884424 C127.740704,22.3931019 129.090948,22.1389582 130.792961,22.0260038 L135.320292,21.7549145 L135.320292,20.9416467 C135.320292,19.9024659 135.019608,19.1287397 134.41823,18.6204447 C133.816852,18.1121498 132.971532,17.8580061 131.882244,17.8580061 C130.861036,17.8580061 130.066775,18.0895592 129.499437,18.5526724 C128.9321,19.0157856 128.625742,19.6426732 128.580355,20.4333543 L123.882823,20.4333543 C123.92821,19.7556277 124.092735,19.0609684 124.376404,18.3493554 C124.660073,17.6377425 125.11961,16.9826167 125.755028,16.3839582 C126.390446,15.7852997 127.218746,15.2939553 128.239954,14.9099102 C129.261162,14.5258652 130.543326,14.3338455 132.086484,14.3338455 C133.175772,14.3338455 134.196965,14.4411506 135.150092,14.655764 C136.103219,14.8703775 136.942866,15.203588 137.669059,15.6554058 C138.395251,16.1072235 138.968253,16.6889301 139.388083,17.400543 C139.807913,18.1121559 140.017825,18.964949 140.017825,19.958948 L140.017825,30.0570236 C140.017825,30.5088413 140.040518,30.9041759 140.085905,31.2430392 C140.131292,31.5819025 140.188025,31.9094654 140.256105,32.2257378 L135.524533,32.2257378 L135.524533,29.9553651 Z M135.320292,24.6352381 L131.235482,25.0079858 C130.078113,25.1209402 129.289526,25.3468457 128.869696,25.685709 C128.449866,26.0245723 128.239954,26.5102691 128.239954,27.1428139 C128.239954,27.910904 128.546312,28.4417819 129.159037,28.7354634 C129.771761,29.0291449 130.486596,29.1759834 131.303562,29.1759834 C131.689352,29.1759834 132.114849,29.1195071 132.580065,29.0065526 C133.045282,28.8935982 133.482126,28.7185215 133.890609,28.4813172 C134.299092,28.2441129 134.639489,27.9391405 134.911811,27.5663909 C135.184134,27.1936412 135.320292,26.7474779 135.320292,26.2278876 L135.320292,24.6352381 Z" id="kulina"></path>
                    </g>
                </g>
            </g>
        </g>
    </g>
</svg>